<svg width="35" height="35" viewBox="0 0 35 35" fill="none" xmlns="http://www.w3.org/2000/svg">
<g clip-path="url(#clip0_162_1093)">
<path d="M14.2186 35.0001C13.873 35.0018 13.535 34.898 13.2499 34.7026C12.9648 34.5071 12.7461 34.2293 12.6231 33.9063L9.89968 26.8243C9.84452 26.6816 9.76014 26.552 9.65195 26.4438C9.54377 26.3356 9.41416 26.2512 9.27145 26.1961L2.18737 23.4706C1.86468 23.3467 1.58712 23.1279 1.39134 22.8431C1.19555 22.5582 1.09074 22.2207 1.09074 21.8751C1.09074 21.5294 1.19555 21.1919 1.39134 20.907C1.58712 20.6222 1.86468 20.4034 2.18737 20.2795L9.2694 17.5561C9.41211 17.5009 9.54171 17.4166 9.6499 17.3084C9.75809 17.2002 9.84247 17.0706 9.89762 16.9279L12.6231 9.84381C12.747 9.52111 12.9658 9.24355 13.2506 9.04777C13.5355 8.85199 13.873 8.74718 14.2186 8.74718C14.5643 8.74718 14.9018 8.85199 15.1866 9.04777C15.4715 9.24355 15.6903 9.52111 15.8141 9.84381L18.5376 16.9258C18.5927 17.0685 18.6771 17.1981 18.7853 17.3063C18.8935 17.4145 19.0231 17.4989 19.1658 17.5541L26.2068 20.2631C26.5426 20.3876 26.832 20.6126 27.0354 20.9074C27.2388 21.2021 27.3464 21.5525 27.3436 21.9106C27.3384 22.2502 27.2314 22.5805 27.0364 22.8586C26.8414 23.1367 26.5674 23.3499 26.2499 23.4706L19.1678 26.194C19.0251 26.2492 18.8955 26.3335 18.7873 26.4417C18.6792 26.5499 18.5948 26.6795 18.5396 26.8222L15.8141 33.9063C15.6911 34.2293 15.4725 34.5071 15.1873 34.7026C14.9022 34.898 14.5643 35.0018 14.2186 35.0001ZM6.0155 12.0313C5.81285 12.0313 5.61496 11.9699 5.4479 11.8552C5.28084 11.7405 5.15245 11.5778 5.07966 11.3887L3.92712 8.39185C3.90214 8.32631 3.86358 8.26679 3.81399 8.21719C3.76439 8.16759 3.70487 8.12904 3.63932 8.10406L0.642449 6.95152C0.453353 6.8787 0.290752 6.7503 0.176069 6.58325C0.0613853 6.41619 0 6.21831 0 6.01568C0 5.81305 0.0613853 5.61517 0.176069 5.44811C0.290752 5.28105 0.453353 5.15266 0.642449 5.07984L3.63932 3.9273C3.70482 3.90225 3.76431 3.86367 3.81389 3.81408C3.86348 3.76449 3.90206 3.70501 3.92712 3.63951L5.0694 0.669293C5.13382 0.494432 5.24468 0.340431 5.39005 0.223843C5.53542 0.107254 5.70982 0.0324863 5.8945 0.00757461C6.11622 -0.0193793 6.3406 0.0284576 6.53205 0.1435C6.72349 0.258542 6.87106 0.434205 6.95134 0.642633L8.10388 3.63951C8.12893 3.70501 8.16751 3.76449 8.2171 3.81408C8.26669 3.86367 8.32617 3.90225 8.39167 3.9273L11.3885 5.07984C11.5776 5.15266 11.7402 5.28105 11.8549 5.44811C11.9696 5.61517 12.031 5.81305 12.031 6.01568C12.031 6.21831 11.9696 6.41619 11.8549 6.58325C11.7402 6.7503 11.5776 6.8787 11.3885 6.95152L8.39167 8.10406C8.32613 8.12904 8.2666 8.16759 8.21701 8.21719C8.16741 8.26679 8.12886 8.32631 8.10388 8.39185L6.95134 11.3887C6.87854 11.5778 6.75015 11.7405 6.58309 11.8552C6.41603 11.9699 6.21814 12.0313 6.0155 12.0313ZM27.3436 17.5001C27.1226 17.5 26.9067 17.4329 26.7245 17.3077C26.5423 17.1825 26.4023 17.005 26.323 16.7987L24.7617 12.7402C24.7342 12.6687 24.692 12.6037 24.6379 12.5496C24.5837 12.4954 24.5187 12.4532 24.4472 12.4257L20.3887 10.8644C20.1825 10.785 20.0053 10.6449 19.8802 10.4627C19.7552 10.2806 19.6882 10.0648 19.6882 9.84381C19.6882 9.62284 19.7552 9.40705 19.8802 9.22487C20.0053 9.04269 20.1825 8.90265 20.3887 8.8232L24.4472 7.26187C24.5187 7.23441 24.5837 7.19222 24.6379 7.13805C24.692 7.08388 24.7342 7.01893 24.7617 6.94742L26.3114 2.91763C26.3821 2.72707 26.5032 2.55925 26.6617 2.43201C26.8203 2.30478 27.0103 2.2229 27.2117 2.19507C27.4536 2.16579 27.6984 2.21815 27.9072 2.34385C28.116 2.46955 28.2769 2.66139 28.3642 2.88892L29.9256 6.94742C29.953 7.01893 29.9952 7.08388 30.0494 7.13805C30.1035 7.19222 30.1685 7.23441 30.24 7.26187L34.2985 8.8232C34.5047 8.90265 34.682 9.04269 34.807 9.22487C34.9321 9.40705 34.999 9.62284 34.999 9.84381C34.999 10.0648 34.9321 10.2806 34.807 10.4627C34.682 10.6449 34.5047 10.785 34.2985 10.8644L30.24 12.4257C30.1685 12.4532 30.1035 12.4954 30.0494 12.5496C29.9952 12.6037 29.953 12.6687 29.9256 12.7402L28.3642 16.7987C28.2849 17.005 28.1449 17.1825 27.9627 17.3077C27.7805 17.4329 27.5647 17.5 27.3436 17.5001Z" fill="black"/>
</g>
<defs>
<clipPath id="clip0_162_1093">
<rect width="35" height="35" fill="white"/>
</clipPath>
</defs>
</svg>
