<svg width="56" height="56" viewBox="0 0 56 56" fill="none" xmlns="http://www.w3.org/2000/svg">
<circle cx="28" cy="28" r="28" fill="white"/>
<path d="M30 25C30 24.6022 30.158 24.2206 30.4393 23.9393C30.7206 23.658 31.1022 23.5 31.5 23.5C31.8978 23.5 32.2794 23.658 32.5607 23.9393C32.842 24.2206 33 24.6022 33 25C33 25.3978 32.842 25.7794 32.5607 26.0607C32.2794 26.342 31.8978 26.5 31.5 26.5C31.1022 26.5 30.7206 26.342 30.4393 26.0607C30.158 25.7794 30 25.3978 30 25Z" fill="#2B65F4"/>
<path fill-rule="evenodd" clip-rule="evenodd" d="M23.2681 20.658C26.4172 20.3845 29.584 20.3845 32.7331 20.658L34.2431 20.79C34.945 20.8515 35.6058 21.1472 36.1193 21.6297C36.6328 22.1121 36.9691 22.7533 37.0741 23.45C37.5277 26.4664 37.5277 29.5336 37.0741 32.55C36.9691 33.2467 36.6328 33.8878 36.1193 34.3703C35.6058 34.8528 34.945 35.1485 34.2431 35.21L32.7331 35.341C29.5831 35.615 26.4171 35.615 23.2681 35.341L21.7581 35.21C21.056 35.1487 20.395 34.8531 19.8813 34.3706C19.3676 33.8881 19.0312 33.2469 18.9261 32.55C18.4725 29.5336 18.4725 26.4664 18.9261 23.45C19.0311 22.7533 19.3674 22.1121 19.8809 21.6297C20.3944 21.1472 21.0552 20.8515 21.7571 20.79L23.2681 20.658ZM32.6031 22.153C29.5402 21.886 26.46 21.886 23.3971 22.153L21.8871 22.284C21.521 22.3164 21.1764 22.4708 20.9085 22.7225C20.6407 22.9742 20.4652 23.3086 20.4101 23.672C20.1524 25.3826 20.0484 27.1128 20.0991 28.842L23.9701 24.97C24.0424 24.8979 24.1286 24.8412 24.2235 24.8036C24.3184 24.766 24.42 24.7481 24.522 24.7511C24.624 24.7541 24.7244 24.7779 24.8169 24.821C24.9095 24.8642 24.9922 24.9257 25.0601 25.002L28.7321 29.132L31.2621 28.288C31.4008 28.2416 31.5501 28.2367 31.6915 28.274C31.8329 28.3113 31.9604 28.3892 32.0581 28.498L35.5771 32.408L35.5911 32.328C36.0226 29.4588 36.0226 26.5412 35.5911 23.672C35.536 23.3084 35.3603 22.9739 35.0923 22.7222C34.8243 22.4705 34.4794 22.3162 34.1131 22.284L32.6031 22.153ZM34.6201 33.588L31.2711 29.867L28.7371 30.711C28.5978 30.7575 28.448 30.7621 28.3061 30.7242C28.1643 30.6864 28.0367 30.6077 27.9391 30.498L24.4681 26.593L20.2241 30.836C20.2728 31.3347 20.3344 31.8317 20.4091 32.327C20.464 32.6907 20.6396 33.0255 20.9076 33.2774C21.1757 33.5293 21.5207 33.6838 21.8871 33.716L23.3971 33.847C26.4601 34.113 29.5401 34.113 32.6031 33.847L34.1131 33.716C34.2911 33.7 34.4631 33.656 34.6201 33.588Z" fill="#2B65F4" stroke="#2B65F4" stroke-width="0.5"/>
</svg>
