<svg width="24" height="25" viewBox="0 0 24 25" fill="none" xmlns="http://www.w3.org/2000/svg">
<path d="M21.7104 20.7899L18.0004 17.1099C19.4405 15.3143 20.1379 13.0352 19.9492 10.7412C19.7605 8.44721 18.7001 6.31269 16.9859 4.77655C15.2718 3.24041 13.0342 2.41941 10.7333 2.48237C8.43243 2.54534 6.24311 3.48747 4.61553 5.11505C2.98795 6.74263 2.04582 8.93194 1.98286 11.2328C1.9199 13.5337 2.7409 15.7713 4.27704 17.4854C5.81318 19.1996 7.94769 20.26 10.2417 20.4487C12.5357 20.6374 14.8148 19.94 16.6104 18.4999L20.2904 22.1799C20.3834 22.2736 20.494 22.348 20.6158 22.3988C20.7377 22.4496 20.8684 22.4757 21.0004 22.4757C21.1324 22.4757 21.2631 22.4496 21.385 22.3988C21.5068 22.348 21.6174 22.2736 21.7104 22.1799C21.8906 21.9934 21.9914 21.7442 21.9914 21.4849C21.9914 21.2256 21.8906 20.9764 21.7104 20.7899ZM11.0004 18.4999C9.61592 18.4999 8.26255 18.0894 7.1114 17.3202C5.96026 16.551 5.06305 15.4578 4.53324 14.1787C4.00342 12.8996 3.8648 11.4921 4.1349 10.1343C4.40499 8.77641 5.07168 7.52912 6.05065 6.55016C7.02961 5.57119 8.27689 4.9045 9.63476 4.63441C10.9926 4.36431 12.4001 4.50293 13.6792 5.03275C14.9583 5.56256 16.0515 6.45977 16.8207 7.61091C17.5899 8.76206 18.0004 10.1154 18.0004 11.4999C18.0004 13.3564 17.2629 15.1369 15.9501 16.4497C14.6374 17.7624 12.8569 18.4999 11.0004 18.4999Z" fill="white"/>
</svg>
