<svg width="56" height="56" viewBox="0 0 56 56" fill="none" xmlns="http://www.w3.org/2000/svg">
<circle cx="28" cy="28" r="28" fill="white"/>
<path d="M28 37C26.75 37 25.5793 36.7627 24.488 36.288C23.3967 35.8133 22.4467 35.1717 21.638 34.363C20.8293 33.5543 20.1877 32.6043 19.713 31.513C19.2383 30.4217 19.0007 29.2507 19 28C18.9993 26.7493 19.237 25.5787 19.713 24.488C20.189 23.3973 20.8303 22.4473 21.637 21.638C22.4437 20.8287 23.3937 20.187 24.487 19.713C25.5803 19.239 26.7513 19.0013 28 19C29.3667 19 30.6627 19.2917 31.888 19.875C33.1133 20.4583 34.1507 21.2833 35 22.35V21C35 20.7167 35.096 20.4793 35.288 20.288C35.48 20.0967 35.7173 20.0007 36 20C36.2827 19.9993 36.5203 20.0953 36.713 20.288C36.9057 20.4807 37.0013 20.718 37 21V25C37 25.2833 36.904 25.521 36.712 25.713C36.52 25.905 36.2827 26.0007 36 26H32C31.7167 26 31.4793 25.904 31.288 25.712C31.0967 25.52 31.0007 25.2827 31 25C30.9993 24.7173 31.0953 24.48 31.288 24.288C31.4807 24.096 31.718 24 32 24H33.75C33.0667 23.0667 32.225 22.3333 31.225 21.8C30.225 21.2667 29.15 21 28 21C26.05 21 24.396 21.6793 23.038 23.038C21.68 24.3967 21.0007 26.0507 21 28C20.9993 29.9493 21.6787 31.6037 23.038 32.963C24.3973 34.3223 26.0513 35.0013 28 35C29.5833 35 31 34.525 32.25 33.575C33.5 32.625 34.325 31.4 34.725 29.9C34.8083 29.6333 34.9583 29.4333 35.175 29.3C35.3917 29.1667 35.6333 29.1167 35.9 29.15C36.1833 29.1833 36.4083 29.304 36.575 29.512C36.7417 29.72 36.7917 29.9493 36.725 30.2C36.2417 32.1833 35.1917 33.8127 33.575 35.088C31.9583 36.3633 30.1 37.0007 28 37ZM29 27.6L31.5 30.1C31.6833 30.2833 31.775 30.5167 31.775 30.8C31.775 31.0833 31.6833 31.3167 31.5 31.5C31.3167 31.6833 31.0833 31.775 30.8 31.775C30.5167 31.775 30.2833 31.6833 30.1 31.5L27.3 28.7C27.2 28.6 27.125 28.4877 27.075 28.363C27.025 28.2383 27 28.109 27 27.975V24C27 23.7167 27.096 23.4793 27.288 23.288C27.48 23.0967 27.7173 23.0007 28 23C28.2827 22.9993 28.5203 23.0953 28.713 23.288C28.9057 23.4807 29.0013 23.718 29 24V27.6Z" fill="#2B65F4"/>
</svg>
